<?xml version="1.0" encoding="UTF-8" standalone="no"?>
<!-- Creator: CorelDRAW -->

<svg
   xml:space="preserve"
   width="3224.6001"
   height="3090.3501"
   version="1.1"
   style="clip-rule:evenodd;fill-rule:evenodd;image-rendering:optimizeQuality;shape-rendering:geometricPrecision;text-rendering:geometricPrecision"
   viewBox="0 0 3224.6001 3089.848"
   id="svg3"
   sodipodi:docname="LOGO.svg"
   inkscape:version="1.3-beta (cedbd6c6ff, 2023-05-28)"
   xmlns:inkscape="http://www.inkscape.org/namespaces/inkscape"
   xmlns:sodipodi="http://sodipodi.sourceforge.net/DTD/sodipodi-0.dtd"
   xmlns="http://www.w3.org/2000/svg"
   xmlns:svg="http://www.w3.org/2000/svg"><sodipodi:namedview
   id="namedview3"
   pagecolor="#505050"
   bordercolor="#eeeeee"
   borderopacity="1"
   inkscape:showpageshadow="0"
   inkscape:pageopacity="0"
   inkscape:pagecheckerboard="0"
   inkscape:deskcolor="#505050"
   inkscape:zoom="0.22976055"
   inkscape:cx="746.42928"
   inkscape:cy="1503.7395"
   inkscape:window-width="1920"
   inkscape:window-height="991"
   inkscape:window-x="-9"
   inkscape:window-y="-9"
   inkscape:window-maximized="1"
   inkscape:current-layer="Camada_x0020_1" />&#10; <defs
   id="defs1">&#10;  <style
   type="text/css"
   id="style1">&#10;   <![CDATA[
    .fil0 {fill:#FF9A00;fill-rule:nonzero}
   ]]>&#10;  </style>&#10; </defs>&#10; <g
   id="Camada_x0020_1"
   inkscape:label="Camada 1"
   inkscape:groupmode="layer">&#10;  <metadata
   id="CorelCorpID_0Corel-Layer" />&#10;  <g
   id="_1909783979072"
   transform="translate(372.30005,-208.791)">&#10;   <g
   id="g3">&#10;    <g
   id="g2">&#10;     <path
   class="fil0"
   d="M 617.52,3248.89 C 56.07,3016.98 -322.3,2467.74 -322.3,1820.85 c 0,-292.94 73.23,-573.66 219.7,-805.57 134.26,-36.61 280.72,-48.82 427.19,-48.82 v 0 0 0 0 c 549.25,0 1037.46,219.7 1391.42,573.66 329.55,329.55 537.05,756.74 573.66,1244.96 C 2192.03,2455.53 2021.15,2174.8 1789.25,1942.9 1435.29,1588.94 947.07,1369.24 397.82,1369.24 v 0 0 0 0 c -36.62,0 -73.23,0 -109.85,0 -73.23,207.5 -109.85,427.19 -109.85,646.89 v 0 12.21 0 0 c 0,463.81 170.88,891 439.4,1220.55 z"
   id="path1" />&#10;     <path
   class="fil0"
   d="m 1240,258.54 c 854.38,0 1562.3,695.71 1562.3,1562.3 0,414.99 -170.87,793.36 -427.19,1074.09 C 2362.91,2345.68 2131,1857.46 1777.04,1491.3 1398.67,1125.13 886.04,893.23 324.59,893.23 v 0 0 0 0 c -122.06,0 -256.32,12.2 -366.17,36.61 C 239.15,527.06 702.96,258.54 1240,258.54 Z M 336.79,734.56 c -0.45851,0.73546 146.99043,11.67957 146.47,12.2 524.84,36.62 1025.26,256.32 1403.63,634.69 305.14,305.13 500.43,683.5 598.07,1098.49 97.64,-207.49 158.67,-427.19 158.67,-659.09 0,-781.15 -634.68,-1403.63 -1403.63,-1403.63 -329.55,0 -646.89,109.84 -903.21,317.34 z"
   id="path2"
   sodipodi:nodetypes="ssccscccscsccccssc" />&#10;    </g>&#10;   </g>&#10;  </g>&#10; </g>&#10;</svg>
